<svg xmlns="http://www.w3.org/2000/svg" viewBox="0 0 136.1 118.1">
  <style>
    .Arched_x0020_Green{fill:url(#SVGID_1_);stroke:#FFFFFF;stroke-width:0.25;stroke-miterlimit:1;} .st0{display:none;fill:url(#SVGID_2_);} .st1{display:none;} .st2{display:inline;fill:#17B89A;} .st3{display:inline;fill:#48B86A;} .st4{display:inline;fill:#3796D2;} .st5{display:inline;fill:#9459A4;} .st6{display:inline;fill:#334860;} .st7{display:inline;fill:#0EA286;} .st8{display:inline;fill:#1DB05C;} .st9{display:inline;fill:#227FBB;} .st10{display:inline;fill:#88499C;} .st11{display:inline;fill:#2A3F51;} .st12{display:inline;fill:#F1C618;} .st13{display:inline;fill:#E77F25;} .st14{display:inline;fill:#EB4C36;} .st15{display:inline;fill:#EDF2F3;} .st16{display:inline;fill:#96A6A5;} .st17{display:inline;fill:#F39E20;} .st18{display:inline;fill:#D55727;} .st19{display:inline;fill:#C33B29;} .st20{display:inline;fill:#BDC2C6;} .st21{display:inline;fill:#808D8E;} .st22{display:none;fill:#F7EEF5;} .st23{display:none;fill:#D7AE98;} .st24{display:none;fill:#AA96C6;} .st25{display:none;fill:#866EAD;} .st26{display:none;fill:url(#SVGID_3_);} .st27{display:none;fill:url(#SVGID_4_);} .st28{display:none;fill:url(#SVGID_5_);} .st29{display:none;fill:url(#SVGID_6_);} .st30{display:none;fill:#656565;} .st31{display:none;fill:#836C67;} .st32{display:none;fill:#1A1811;} .st33{display:inline;fill:#656565;} .st34{fill:url(#path1950_3_);} .st35{fill:url(#path1950_4_);} .st36{opacity:0.4438;fill:url(#path1894_2_);enable-background:new ;} .st37{display:inline;fill:#FFFFFF;} .st38{display:none;opacity:0.1;fill:#5BAADE;} .st39{display:inline;} .st40{fill:#237FBB;} .st41{display:none;fill:#237FBB;} .st42{display:inline;opacity:0.5;fill:#237FBB;} .st43{display:inline;fill:#237FBB;}
  </style>
  <linearGradient id="SVGID_1_" gradientUnits="userSpaceOnUse" x1="-348.737" y1="446.202" x2="-348.03" y2="445.495">
    <stop offset="0" stop-color="#20AC4B"/>
    <stop offset=".983" stop-color="#19361A"/>
  </linearGradient>
  <g id="Artwork">
    <linearGradient id="SVGID_2_" gradientUnits="userSpaceOnUse" x1="-498.512" y1="388.188" x2="-427.671" y2="388.188">
      <stop offset="0" stop-color="#AA96C6"/>
      <stop offset="1" stop-color="#866EAD"/>
    </linearGradient>
    <circle class="st0" cx="-463.1" cy="388.2" r="35.4"/>
    <g class="st1">
      <path class="st2" d="M-678 3.8h55.3v55.3H-678z"/>
      <path class="st3" d="M-622.7 3.8h55.3v55.3h-55.3z"/>
      <path class="st4" d="M-567.4 3.8h55.3v55.3h-55.3z"/>
      <path class="st5" d="M-512.1 3.8h55.3v55.3h-55.3z"/>
      <path class="st6" d="M-456.8 3.8h55.3v55.3h-55.3z"/>
      <path class="st7" d="M-678 59.1h55.3v55.3H-678z"/>
      <path class="st8" d="M-622.7 59.1h55.3v55.3h-55.3z"/>
      <path class="st9" d="M-567.4 59.1h55.3v55.3h-55.3z"/>
      <path class="st10" d="M-512.1 59.1h55.3v55.3h-55.3z"/>
      <path class="st11" d="M-456.8 59.1h55.3v55.3h-55.3z"/>
      <path class="st12" d="M-678 114.4h55.3v55.3H-678z"/>
      <path class="st13" d="M-622.7 114.4h55.3v55.3h-55.3z"/>
      <path class="st14" d="M-567.4 114.4h55.3v55.3h-55.3z"/>
      <path class="st15" d="M-512.1 114.4h55.3v55.3h-55.3z"/>
      <path class="st16" d="M-456.8 114.4h55.3v55.3h-55.3z"/>
      <path class="st17" d="M-678 169.6h55.3v55.3H-678z"/>
      <path class="st18" d="M-622.7 169.6h55.3v55.3h-55.3z"/>
      <path class="st19" d="M-567.4 169.6h55.3v55.3h-55.3z"/>
      <path class="st20" d="M-512.1 169.6h55.3v55.3h-55.3z"/>
      <path class="st21" d="M-456.8 169.6h55.3v55.3h-55.3z"/>
    </g>
    <path class="st22" d="M-569.4-476.6h34v34h-34z"/>
    <path class="st23" d="M-535.4-476.6h34v34h-34zM-467.5-442.6h34v34h-34z"/>
    <path class="st24" d="M-501.5-476.6h34v34h-34z"/>
    <path class="st25" d="M-501.5-442.6h34v34h-34z"/>
    <linearGradient id="SVGID_3_" gradientUnits="userSpaceOnUse" x1="-502.626" y1="-375.972" x2="-466.298" y2="-407.227">
      <stop offset="0" stop-color="#AA96C6"/>
      <stop offset="1" stop-color="#866EAD"/>
    </linearGradient>
    <path class="st26" d="M-501.5-408.6h34v34h-34z"/>
    <linearGradient id="SVGID_4_" gradientUnits="userSpaceOnUse" x1="-468.644" y1="-375.972" x2="-432.317" y2="-407.227">
      <stop offset="0" stop-color="#D7AE98"/>
      <stop offset="1" stop-color="#836C67"/>
    </linearGradient>
    <path class="st27" d="M-467.5-408.6h34v34h-34z"/>
    <linearGradient id="SVGID_5_" gradientUnits="userSpaceOnUse" x1="-326.86" y1="-388.736" x2="-280.708" y2="-428.444">
      <stop offset="0" stop-color="#AA96C6"/>
      <stop offset="1" stop-color="#866EAD"/>
    </linearGradient>
    <path class="st28" d="M-325.4-430.2h43.2v43.2h-43.2z"/>
    <linearGradient id="SVGID_6_" gradientUnits="userSpaceOnUse" x1="-283.688" y1="-388.736" x2="-237.536" y2="-428.444">
      <stop offset="0" stop-color="#D7AE98"/>
      <stop offset="1" stop-color="#836C67"/>
    </linearGradient>
    <path class="st29" d="M-282.2-430.2h43.2v43.2h-43.2z"/>
    <path class="st30" d="M-239-430.2h43.2v43.2H-239z"/>
    <path class="st31" d="M-467.5-476.6h34v34h-34z"/>
    <path class="st32" d="M-433.5-476.6h34v34h-34z"/>
    <text transform="translate(152.253 85.455)" class="st30" font-family="Monoid-Regular" font-size="113.435" letter-spacing="-5">
      sap.py
    </text>
    <linearGradient id="path1950_3_" gradientUnits="userSpaceOnUse" x1="27.336" y1="444.581" x2="-143.357" y2="444.581" gradientTransform="matrix(1 0 0 -1 32.667 493.276)">
      <stop offset="0" stop-color="#D7AE98"/>
      <stop offset="1" stop-color="#836C67"/>
    </linearGradient>
    <path id="path1950_1_" class="st34" d="M77.9 97.4c9.1 0 13.4-6.8 15.6-15.8 3.1-12.5 3.3-21.9 0-31.7-3.2-9.5-6.5-15.8-15.6-15.8H33.2c-1.1 0-2-.9-2-2s.9-2 2-2h27.2c1.1 0 2-.9 2-2v-9.9c0-9-7.7-13.6-15.6-15.8C34.9-1 25.5-.5 15.6 2.4 7.3 4.8 0 9.8 0 18.2v28c0 9.7 7.9 17.6 17.6 17.6h29.2c10.4 0 19.5 9 19.5 19.8v11.9c0 1.1.9 2 2 2h9.6zm-35-81.1c0-3.3 2.6-6 5.9-6 3.2 0 5.9 2.7 5.9 6s-2.6 5.9-5.9 5.9c-3.3 0-5.9-2.7-5.9-5.9z"/>
    <linearGradient id="path1950_4_" gradientUnits="userSpaceOnUse" x1="-441.319" y1="444.581" x2="-612.012" y2="444.581" gradientTransform="matrix(-1 0 0 -1 -365.187 493.276)">
      <stop offset="0" stop-color="#AA96C6"/>
      <stop offset="1" stop-color="#866EAD"/>
    </linearGradient>
    <path id="path1950_2_" class="st35" d="M67.9 97.4c1.1 0 2-.9 2-2V83.5c0-10.7 9.1-19.8 19.5-19.8h29.2c9.7 0 17.6-7.9 17.6-17.6v-28c0-8.5-7.3-13.4-15.6-15.8-9.9-2.9-19.3-3.4-31.2 0-7.9 2.3-15.6 6.8-15.6 15.8V28c0 1.1.9 2 2 2H103c1.1 0 2 .9 2 2s-.9 2-2 2H58.2c-9.1 0-12.4 6.3-15.6 15.8-3.3 9.8-3.1 19.2 0 31.7 2.2 9 6.5 15.8 15.6 15.8h9.7zm19.5-75.2c-3.2 0-5.9-2.6-5.9-5.9 0-3.3 2.6-6 5.9-6 3.2 0 5.9 2.7 5.9 6 0 3.2-2.7 5.9-5.9 5.9z"/>
    <radialGradient id="path1894_2_" cx="-1033.189" cy="94.504" r="31.043" gradientTransform="matrix(0 -.24 -1.055 0 166.623 -137.173)" gradientUnits="userSpaceOnUse">
      <stop offset="0" stop-color="#B9B9B9" stop-opacity=".498"/>
      <stop offset="1" stop-color="gray" stop-opacity="0"/>
    </radialGradient>
    <path id="path1894_1_" class="st36" d="M105.4 110.7c0 4.1-17.2 7.4-38.4 7.4s-38.4-3.3-38.4-7.4c0-4.1 17.2-7.4 38.4-7.4 21.2-.1 38.4 3.3 38.4 7.4z"/>
    <g class="st1">
      <path class="st37" d="M-443.7 394.1v-5.9c0-3.1-2.5-5.7-5.7-5.6h-22.7c-.9 0-1.5-.7-1.5-1.5 0-.9.7-1.5 1.5-1.5h30.5c2.2 0 3.7-2.4 2.6-4.3-2.3-3.9-5-12.6-21.9-12.6-21.3 0-26.6 13.5-26.6 22.5v7.8c0 .6.2 1.2.6 1.7 1.2 1.6 2.6 3.1 4.1 4.7.5.5 1.2.8 2 .8h21.6c.8 0 1.5.5 1.7 1.3.1 1-.6 1.8-1.5 1.8h-23.2c-2.6 0-3.7 3.3-1.6 4.9 2.5 1.9 5.3 3.7 8.3 5.6.2.1 3.9 2 11.1 2 16.7-.1 20.7-11.3 20.7-21.7z"/>
    </g>
  </g>
  <g id="INFO">
    <circle class="st38" cx="-533.3" cy="-274" r="13.7"/>
    <text transform="translate(-539.354 -266.569)" class="st1 st43" font-family="Helvetica" font-size="21.776">
      2
    </text>
    <circle class="st38" cx="-533.3" cy="-231.8" r="13.7"/>
    <text transform="translate(-539.354 -224.351)" class="st1 st43" font-family="Helvetica" font-size="21.776">
      3
    </text>
    <circle class="st38" cx="-533.3" cy="-194.6" r="13.7"/>
    <text transform="translate(-539.354 -187.092)" class="st1 st43" font-family="Helvetica" font-size="21.776">
      4
    </text>
    <circle class="st38" cx="-488" cy="-311.3" r="13.7"/>
    <text transform="translate(-494.037 -303.827)" class="st1 st43" font-family="Helvetica" font-size="21.776">
      5
    </text>
    <circle class="st38" cx="-488" cy="-274" r="13.7"/>
    <text transform="translate(-494.037 -266.569)" class="st1 st43" font-family="Helvetica" font-size="21.776">
      6
    </text>
    <circle class="st38" cx="-488" cy="-231.8" r="13.7"/>
    <text transform="translate(-494.037 -224.351)" class="st1 st43" font-family="Helvetica" font-size="21.776">
      7
    </text>
    <circle class="st38" cx="-488" cy="-194.6" r="13.7"/>
    <text transform="translate(-494.037 -187.092)" class="st1 st43" font-family="Helvetica" font-size="21.776">
      8
    </text>
    <path class="st41" d="M-480.9-137.8v-.7s-.3.1-.9.2l-12-6.9v9.2c-17.5 2.9-54.2 7.8-117.1 11h117.1v8.9l12.6-7.3 12.6-7.3-12.3-7.1zM-463.1-73.2c-70.5-3.6-108-9.3-122.6-12v-9.4l-12.6 7.3-12.6 7.3 12.6 7.3 12.6 7.3v-7.7h122.6z"/>
    <path class="st38" d="M-357.6-355.1H884.3v100.9H-357.6z"/>
    <text transform="translate(646.279 -293.063)" class="st1">
      <tspan x="0" y="0" class="st42" font-family="Helvetica-Bold" font-size="23.961">cameron</tspan><tspan x="99.9" y="0" class="st43" font-family="Helvetica-Bold" font-size="23.961">morgan</tspan>
    </text>
    <text transform="translate(-314.222 -303.13)" class="st41" font-family="Helvetica-Bold" font-size="22">
      0031-CK_LogoDesigns - Sap.py
    </text>
    <text transform="translate(-314.222 -281.175)" class="st41" font-family="Helvetica-LightOblique" font-size="16">
      Final
    </text>
    <text transform="translate(-314.222 503.483)" class="st41" font-family="Helvetica-LightOblique" font-size="16">
      Python Font: Flux: http://www.myfonts.com/fonts/t26/flux/
    </text>
  </g>
</svg>